<svg width="21" height="21" viewBox="0 0 21 21" fill="none" xmlns="http://www.w3.org/2000/svg">
<path d="M9.00879 10.6488L7.3698 9.00977L6.47754 9.90203L9.00879 12.4333L14.0713 7.37078L13.179 6.47852L9.00879 10.6488Z" fill="#EDF4F9"/>
<path d="M10.2744 19.1348L6.36617 17.0509C5.252 16.4582 4.32026 15.5732 3.67097 14.491C3.02167 13.4088 2.67933 12.1702 2.68067 10.9082V2.68164C2.681 2.34608 2.81445 2.02436 3.05173 1.78708C3.28901 1.5498 3.61073 1.41635 3.94629 1.41602H16.6025C16.9381 1.41635 17.2598 1.5498 17.4971 1.78708C17.7344 2.02436 17.8678 2.34608 17.8682 2.68164V10.9082C17.8695 12.1702 17.5272 13.4088 16.8779 14.491C16.2286 15.5732 15.2968 16.4582 14.1827 17.0509L10.2744 19.1348ZM3.94629 2.68164V10.9082C3.94524 11.9408 4.22543 12.9542 4.75678 13.8397C5.28812 14.7251 6.05057 15.4491 6.96228 15.934L10.2744 17.7002L13.5866 15.9346C14.4984 15.4497 15.2609 14.7256 15.7922 13.84C16.3236 12.9545 16.6037 11.9409 16.6025 10.9082V2.68164H3.94629Z" fill="#EDF4F9"/>
</svg>
