<svg width="22" height="23" viewBox="0 0 22 23" fill="none" xmlns="http://www.w3.org/2000/svg">
<path fill-rule="evenodd" clip-rule="evenodd" d="M14.894 4.56026C13.867 3.53302 12.4798 2.94697 11.0275 2.92676H10.9725C9.51997 2.94668 8.13256 3.53254 7.1054 4.5597C6.07824 5.58686 5.49238 6.97427 5.47246 8.42676C5.45458 9.45801 5.74471 10.4714 6.30571 11.3376L10.6342 20.1143H11.3671L15.6942 11.3376C16.2566 10.4714 16.5467 9.45801 16.5275 8.42676C16.5072 6.97438 15.9212 5.58719 14.894 4.56026ZM10.8968 4.30176L11.0096 4.31551L11.1113 4.30176C12.1915 4.3488 13.2126 4.80785 13.9647 5.58453C14.7168 6.36122 15.1429 7.39653 15.1552 8.47763C15.1657 9.24492 14.9417 9.99713 14.5131 10.6336L14.4856 10.6804L14.4622 10.7285L11 17.7479L7.53908 10.7354L7.51571 10.6818L7.48821 10.635C7.0596 9.99851 6.83556 9.2463 6.84608 8.47901C6.85781 7.39665 7.28433 6.36004 8.03773 5.58284C8.79113 4.80565 9.81399 4.34712 10.8955 4.30176H10.8968ZM11.7383 7.28413C11.5882 7.18374 11.4197 7.1139 11.2426 7.0786C11.0655 7.0433 10.8831 7.04324 10.706 7.07842C10.5288 7.11359 10.3603 7.18332 10.2101 7.28361C10.0599 7.38391 9.93092 7.5128 9.83052 7.66295C9.73012 7.81309 9.66028 7.98153 9.62499 8.15867C9.58969 8.3358 9.58963 8.51815 9.62481 8.69531C9.65998 8.87246 9.72971 9.04096 9.83 9.19117C9.93029 9.34138 10.0592 9.47036 10.2093 9.57076C10.5126 9.77352 10.8839 9.84751 11.2417 9.77647C11.5995 9.70543 11.9144 9.49517 12.1171 9.19195C12.3199 8.88872 12.3939 8.51737 12.3229 8.15958C12.2518 7.8018 12.0416 7.48689 11.7383 7.28413ZM9.44621 6.14013C9.74622 5.92924 10.0854 5.78048 10.4437 5.70261C10.8021 5.62474 11.1724 5.61934 11.5329 5.68671C11.8934 5.75409 12.2367 5.89288 12.5428 6.09493C12.8488 6.29697 13.1114 6.55819 13.315 6.86321C13.5186 7.16823 13.6591 7.51088 13.7283 7.87102C13.7975 8.23116 13.7939 8.60149 13.7179 8.96024C13.6418 9.31899 13.4948 9.6589 13.2854 9.95998C13.076 10.2611 12.8086 10.5172 12.4987 10.7134C11.8922 11.0974 11.1596 11.229 10.4573 11.0801C9.7551 10.9312 9.13891 10.5137 8.74038 9.9166C8.34186 9.31953 8.1926 8.5903 8.32448 7.88467C8.45637 7.17904 8.85894 6.55295 9.44621 6.14013Z" fill="#8BC34A"/>
</svg>
