<svg width="50" height="50" viewBox="0 0 50 50" fill="none" xmlns="http://www.w3.org/2000/svg">
<path d="M9.01106 37.9808C12.0884 34.9034 12.3962 34.134 14.3195 36.0574C16.2429 37.9808 15.4736 38.2116 12.3962 41.3659C10.0881 43.6739 7.16464 43.2123 7.16464 43.2123C7.16464 43.2123 6.70303 40.2888 9.01106 37.9808Z" fill="#FF9D27"/>
<path d="M14.8585 41.1353C16.0895 37.9041 16.4741 37.5194 14.7046 36.5192C12.9351 35.5191 12.9351 36.2115 11.7811 39.4427C10.8579 41.8277 11.935 43.9819 11.935 43.9819C11.935 43.9819 14.0122 43.5972 14.8585 41.1353Z" fill="#FF9D27"/>
<path d="M13.0883 38.1348C13.7807 36.3653 13.7807 35.9807 14.7039 36.5192C15.7041 37.0577 15.4733 37.2885 14.7809 39.058C14.3193 40.3659 13.1653 40.6737 13.1653 40.6737C13.1653 40.6737 12.6267 39.5196 13.0883 38.1348Z" fill="#FDF516"/>
<path d="M13.781 35.6725C12.7809 33.903 12.3962 34.2877 9.16494 35.5186C6.77997 36.4419 6.31836 38.4421 6.31836 38.4421C6.31836 38.4421 8.47253 39.5192 10.8575 38.596C14.0887 37.3651 14.7812 37.3651 13.781 35.6725Z" fill="#FF9D27"/>
<path d="M12.1658 37.2882C13.9353 36.5957 14.32 36.5957 13.7814 35.6725C13.2429 34.6724 13.0121 34.9032 11.2426 35.5956C9.93469 36.0572 9.62695 37.2112 9.62695 37.2112C9.62695 37.2112 10.8579 37.7498 12.1658 37.2882Z" fill="#FDF516"/>
<path d="M11.3196 37.135C13.0121 35.4424 13.166 34.9808 14.2431 36.0579C15.3202 37.135 14.8586 37.2889 13.166 38.9814C11.8581 40.2893 10.2425 39.9816 10.2425 39.9816C10.2425 39.9816 10.0886 38.4429 11.3196 37.135Z" fill="#FDF516"/>
<path d="M14.8573 29.7488C10.0873 21.7476 2.16309 25.0558 2.16309 25.0558C2.16309 25.0558 13.4725 13.7464 21.089 21.3629L14.8573 29.7488Z" fill="#214228"/>
<path d="M18.5501 23.8248L21.012 21.3629C13.4725 13.7464 2.16309 25.0558 2.16309 25.0558C2.16309 25.0558 12.0876 17.9778 18.5501 23.8248Z" fill="#C0D647" fill-opacity="0.15"/>
<path d="M20.6279 35.5188C28.6291 40.2887 25.3209 48.213 25.3209 48.213C25.3209 48.213 36.6303 36.9036 29.0138 29.2871L20.6279 35.5188Z" fill="#214228"/>
<path d="M26.5513 31.8262L29.0132 29.3643C36.6297 36.9808 25.3203 48.2901 25.3203 48.2901C25.3203 48.2901 32.3983 38.2887 26.5513 31.8262Z" fill="#C0D647" fill-opacity="0.15"/>
<path d="M38.1697 24.2864C29.1684 33.2108 19.2438 38.0576 15.7818 34.5956C12.3197 31.1335 17.1666 21.209 26.091 12.2076C36.5541 1.74455 48.1712 2.20616 48.1712 2.20616C48.1712 2.20616 48.5559 13.8233 38.1697 24.2864Z" fill="#C5D0D8"/>
<path d="M35.8617 21.747C26.9373 30.6714 18.0129 36.5184 15.9356 34.4412C13.8584 32.364 19.7054 23.4396 28.6298 14.5152C39.0929 4.05206 48.3251 2.05176 48.3251 2.05176C48.3251 2.05176 46.3248 11.2839 35.8617 21.747Z" fill="#DAE3EA"/>
<path d="M19.3206 37.0574C18.936 37.442 18.3205 37.442 17.9358 37.0574L13.3198 32.4413C12.9351 32.0566 12.9351 31.3642 13.3198 30.9795L14.7046 29.5947L20.7055 35.5956L19.3206 37.0574Z" fill="#C94747"/>
<path d="M18.0122 35.6733C17.6276 36.0579 17.166 36.2118 16.9352 35.981L14.3194 33.3652C14.0886 33.1344 14.2424 32.6728 14.6271 32.2881L16.0119 30.9033L19.3971 34.2884L18.0122 35.6733Z" fill="#F15744"/>
<path d="M16.7044 37.5969C16.4736 37.8277 15.9351 37.8277 15.7043 37.5969L12.7038 34.5964C12.473 34.3656 12.5499 33.904 12.7807 33.6732L13.704 32.75L17.6276 36.6737L16.7044 37.5969Z" fill="#3E4347"/>
<path d="M16.0883 36.9802C15.8575 37.211 15.3959 37.2879 15.2421 37.134L13.1648 35.0568C13.011 34.9029 13.0879 34.5183 13.3956 34.2875L14.3188 33.3643L17.0116 36.057L16.0883 36.9802Z" fill="#62727A"/>
<path d="M48.1711 2.20553C48.1711 2.20553 44.0166 2.05166 38.4004 4.20583L46.1708 11.9762C48.3249 6.35999 48.1711 2.20553 48.1711 2.20553Z" fill="#D0EE29"/>
<path d="M48.1703 2.20605C48.1703 2.20605 44.8621 2.89847 39.8613 5.74504L44.6313 10.515C47.4778 5.51424 48.1703 2.20605 48.1703 2.20605Z" fill="#C0D647"/>
<path d="M34.0918 20.1319C36.2163 20.1319 37.9386 18.4097 37.9386 16.2852C37.9386 14.1607 36.2163 12.4385 34.0918 12.4385C31.9674 12.4385 30.2451 14.1607 30.2451 16.2852C30.2451 18.4097 31.9674 20.1319 34.0918 20.1319Z" fill="#EDF4F9"/>
<path d="M34.0916 18.8247C35.4937 18.8247 36.6304 17.6881 36.6304 16.2859C36.6304 14.8837 35.4937 13.7471 34.0916 13.7471C32.6894 13.7471 31.5527 14.8837 31.5527 16.2859C31.5527 17.6881 32.6894 18.8247 34.0916 18.8247Z" fill="#C0D647"/>
<path d="M26.3985 27.8253C28.523 27.8253 30.2452 26.1031 30.2452 23.9786C30.2452 21.8541 28.523 20.1318 26.3985 20.1318C24.274 20.1318 22.5518 21.8541 22.5518 23.9786C22.5518 26.1031 24.274 27.8253 26.3985 27.8253Z" fill="#EDF4F9"/>
<path d="M26.3972 26.5181C27.7994 26.5181 28.9361 25.3814 28.9361 23.9793C28.9361 22.5771 27.7994 21.4404 26.3972 21.4404C24.9951 21.4404 23.8584 22.5771 23.8584 23.9793C23.8584 25.3814 24.9951 26.5181 26.3972 26.5181Z" fill="#C0D647"/>
<path d="M38.2448 5.82288C38.014 6.05368 37.5523 6.05368 37.3215 5.82288C37.0907 5.59208 37.0907 5.13047 37.3215 4.89967C37.5523 4.66886 38.014 4.66886 38.2448 4.89967C38.4756 5.13047 38.4756 5.59208 38.2448 5.82288Z" fill="white"/>
<path d="M39.552 7.74658C39.8919 7.74658 40.1675 7.47102 40.1675 7.1311C40.1675 6.79118 39.8919 6.51562 39.552 6.51562C39.2121 6.51562 38.9365 6.79118 38.9365 7.1311C38.9365 7.47102 39.2121 7.74658 39.552 7.74658Z" fill="white"/>
<path d="M41.3997 9.59228C41.7396 9.59228 42.0151 9.31672 42.0151 8.9768C42.0151 8.63689 41.7396 8.36133 41.3997 8.36133C41.0597 8.36133 40.7842 8.63689 40.7842 8.9768C40.7842 9.31672 41.0597 9.59228 41.3997 9.59228Z" fill="white"/>
<path d="M43.1682 11.439C43.5081 11.439 43.7837 11.1634 43.7837 10.8235C43.7837 10.4836 43.5081 10.208 43.1682 10.208C42.8283 10.208 42.5527 10.4836 42.5527 10.8235C42.5527 11.1634 42.8283 11.439 43.1682 11.439Z" fill="white"/>
<path d="M45.0159 13.2085C45.3558 13.2085 45.6313 12.9329 45.6313 12.593C45.6313 12.2531 45.3558 11.9775 45.0159 11.9775C44.6759 11.9775 44.4004 12.2531 44.4004 12.593C44.4004 12.9329 44.6759 13.2085 45.0159 13.2085Z" fill="white"/>
</svg>
