<svg width="28" height="27" viewBox="0 0 28 27" fill="none" xmlns="http://www.w3.org/2000/svg">
<path d="M0.668945 13.6769C0.669696 16.852 1.80291 19.9227 3.86489 22.3371C5.92688 24.7515 8.78243 26.3513 11.9183 26.8489V17.5303H8.53561V13.6769H11.9223V10.7436C11.8475 10.057 11.9248 9.36245 12.1487 8.70915C12.3726 8.05584 12.7376 7.45985 13.2178 6.9635C13.698 6.46715 14.2816 6.08262 14.9271 5.83722C15.5726 5.59183 16.2643 5.49158 16.9529 5.54359C17.9529 5.55959 18.9529 5.64893 19.9396 5.81026V9.08893H18.2543C17.9678 9.05141 17.6766 9.07874 17.4022 9.1689C17.1277 9.25906 16.877 9.40975 16.6686 9.60982C16.4602 9.80989 16.2995 10.0542 16.1982 10.3248C16.097 10.5953 16.0578 10.8852 16.0836 11.1729V13.6769H19.7783L19.1876 17.5316H16.0836V26.8489C18.6004 26.4512 20.9506 25.3406 22.8558 23.6486C24.7611 21.9567 26.1416 19.7542 26.834 17.302C27.5263 14.8498 27.5015 12.2506 26.7625 9.81204C26.0235 7.3735 24.6013 5.19777 22.6641 3.54245C20.727 1.88714 18.3561 0.821554 15.8321 0.471867C13.3081 0.12218 10.7368 0.503032 8.42261 1.56933C6.10839 2.63563 4.14817 4.34272 2.77402 6.4885C1.39987 8.63427 0.66935 11.1289 0.668945 13.6769Z" fill="#8BC34A"/>
</svg>
