<svg width="21" height="21" viewBox="0 0 21 21" fill="none" xmlns="http://www.w3.org/2000/svg">
<path d="M3.94629 3.9473C3.94629 3.27597 4.21297 2.63213 4.68767 2.15743C5.16238 1.68273 5.80621 1.41605 6.47754 1.41605C7.14887 1.41605 7.7927 1.68273 8.2674 2.15743C8.7421 2.63213 9.00879 3.27597 9.00879 3.9473C9.00879 4.61862 8.7421 5.26246 8.2674 5.73716C7.7927 6.21186 7.14887 6.47855 6.47754 6.47855C5.80621 6.47855 5.16238 6.21186 4.68767 5.73716C4.21297 5.26246 3.94629 4.61862 3.94629 3.9473ZM6.47754 2.68167C6.14187 2.68167 5.81996 2.81501 5.58261 3.05236C5.34526 3.28971 5.21191 3.61163 5.21191 3.9473C5.21191 4.28296 5.34526 4.60488 5.58261 4.84223C5.81996 5.07958 6.14187 5.21292 6.47754 5.21292C6.8132 5.21292 7.13512 5.07958 7.37247 4.84223C7.60982 4.60488 7.74316 4.28296 7.74316 3.9473C7.74316 3.61163 7.60982 3.28971 7.37247 3.05236C7.13512 2.81501 6.8132 2.68167 6.47754 2.68167ZM12.526 5.95205C12.2608 5.74979 12.0382 5.49713 11.871 5.20859C11.7038 4.92005 11.5953 4.60131 11.5516 4.27069C11.508 3.94006 11.5301 3.60408 11.6167 3.28203C11.7033 2.95999 11.8527 2.65823 12.0563 2.39411C12.2599 2.12998 12.5137 1.90869 12.8031 1.74295C13.0925 1.5772 13.4118 1.47028 13.7426 1.42832C14.0735 1.38636 14.4093 1.41019 14.7309 1.49843C15.0525 1.58668 15.3535 1.73761 15.6166 1.94255C16.1346 2.35692 16.4693 2.95808 16.5486 3.61668C16.6278 4.27528 16.4454 4.93868 16.0405 5.46414C15.6356 5.9896 15.0407 6.33513 14.3836 6.42638C13.7266 6.51763 13.06 6.3473 12.5272 5.95205H12.526ZM14.0713 2.68167C13.7356 2.68167 13.4137 2.81501 13.1764 3.05236C12.939 3.28971 12.8057 3.61163 12.8057 3.9473C12.8057 4.28296 12.939 4.60488 13.1764 4.84223C13.4137 5.07958 13.7356 5.21292 14.0713 5.21292C14.407 5.21292 14.7289 5.07958 14.9662 4.84223C15.2036 4.60488 15.3369 4.28296 15.3369 3.9473C15.3369 3.61163 15.2036 3.28971 14.9662 3.05236C14.7289 2.81501 14.407 2.68167 14.0713 2.68167ZM3.31348 7.74417H6.6927C6.55348 8.14031 6.47754 8.56683 6.47754 9.0098H3.31348C3.14564 9.0098 2.98469 9.07647 2.86601 9.19514C2.74734 9.31382 2.68066 9.47478 2.68066 9.64261C2.68066 10.6766 3.09199 11.4436 3.74126 11.965C4.03995 12.2055 4.39812 12.3991 4.80312 12.5409C4.50571 12.857 4.27652 13.231 4.1298 13.6395C3.70498 13.4688 3.30721 13.2373 2.94898 12.9522C1.99723 12.1865 1.41504 11.055 1.41504 9.64261C1.41504 9.13911 1.61505 8.65624 1.97108 8.30021C2.3271 7.94418 2.80998 7.74417 3.31348 7.74417ZM8.08235 7.74417C7.74669 8.32588 7.65585 9.0171 7.82983 9.66578C8.00381 10.3145 8.42835 10.8675 9.01005 11.2031C9.59176 11.5388 10.283 11.6296 10.9317 11.4556C11.5803 11.2817 12.1333 10.8571 12.469 10.2754C12.8047 9.69371 12.8955 9.00249 12.7215 8.35381C12.5476 7.70513 12.123 7.15213 11.5413 6.81647C10.9596 6.4808 10.2684 6.38997 9.61969 6.56395C8.97101 6.73792 8.41802 7.16246 8.08235 7.74417ZM9.99091 7.77581C10.1764 7.73392 10.3688 7.73422 10.5541 7.77668C10.7394 7.81914 10.9128 7.90267 11.0615 8.02112C11.2102 8.13957 11.3304 8.28991 11.4133 8.46103C11.4961 8.63215 11.5394 8.81969 11.54 9.0098C11.5399 9.24793 11.4727 9.4812 11.3459 9.68281C11.2192 9.88442 11.0382 10.0462 10.8236 10.1495C10.6091 10.2529 10.3697 10.2936 10.1331 10.267C9.89646 10.2404 9.67212 10.1476 9.48586 9.99922C9.2996 9.85085 9.15897 9.65294 9.08014 9.42823C9.00132 9.20353 8.98748 8.96114 9.04023 8.72893C9.09298 8.49671 9.21017 8.28409 9.37834 8.11549C9.54651 7.94689 9.75883 7.82915 9.99091 7.77581ZM16.8076 11.965C16.5089 12.2055 16.1507 12.3991 15.7457 12.5409C16.0427 12.8571 16.2714 13.2311 16.4178 13.6395C16.8481 13.4635 17.2467 13.2345 17.5999 12.9522C18.5516 12.1865 19.1338 11.055 19.1338 9.64261C19.1338 9.13911 18.9338 8.65624 18.5777 8.30021C18.2217 7.94418 17.7388 7.74417 17.2354 7.74417H13.8561C13.9954 8.14031 14.0713 8.56683 14.0713 9.0098H17.2354C17.4032 9.0098 17.5641 9.07647 17.6828 9.19514C17.8015 9.31382 17.8682 9.47478 17.8682 9.64261C17.8682 10.6766 17.4568 11.4436 16.8076 11.965ZM13.4385 12.8067C13.942 12.8067 14.4248 13.0067 14.7809 13.3627C15.1369 13.7187 15.3369 14.2016 15.3369 14.7051C15.3369 16.1175 14.756 17.249 13.803 18.0147C12.8651 18.7678 11.6071 19.1348 10.2744 19.1348C8.94171 19.1348 7.68368 18.7678 6.74585 18.0147C5.7941 17.249 5.21191 16.1175 5.21191 14.7051C5.21125 14.4556 5.25989 14.2084 5.35506 13.9778C5.45023 13.7472 5.59004 13.5376 5.76646 13.3612C5.94288 13.1848 6.15243 13.045 6.38306 12.9498C6.61369 12.8547 6.86086 12.806 7.11035 12.8067H13.4385ZM13.4385 14.0723H7.11035C6.94252 14.0723 6.78156 14.139 6.66289 14.2576C6.54421 14.3763 6.47754 14.5373 6.47754 14.7051C6.47754 15.7391 6.88887 16.5061 7.53813 17.0275C8.20385 17.5616 9.16066 17.8692 10.2744 17.8692C11.3882 17.8692 12.345 17.5616 13.0107 17.0275C13.66 16.5061 14.0713 15.7391 14.0713 14.7051C14.0713 14.5373 14.0046 14.3763 13.8859 14.2576C13.7673 14.139 13.6063 14.0723 13.4385 14.0723Z" fill="#EDF4F9"/>
</svg>
