<svg width="53" height="52" viewBox="0 0 53 52" fill="none" xmlns="http://www.w3.org/2000/svg">
<path d="M26.9762 8.65245C26.8196 8.60028 26.6565 8.65204 26.4935 8.65173C26.3309 8.65133 26.1686 8.59885 26.0124 8.65102L7.70605 14.7541V17.6469L26.0109 23.7486C26.1673 23.8007 26.3311 23.8275 26.4935 23.8275C26.6559 23.8275 26.8198 23.8006 26.9762 23.7486L45.281 17.6469V14.7541L26.9762 8.65245Z" fill="white"/>
<path d="M45.2816 17.6467V14.7538L26.9768 8.65221C26.8202 8.60004 26.6571 8.6518 26.4941 8.6515V23.8273C26.6565 23.8273 26.8204 23.8005 26.9768 23.7484L45.2816 17.6467Z" fill="white"/>
<path d="M26.4943 21.2852H6.66406V43.7599C6.66406 44.4169 7.08416 44.9994 7.70683 45.2064L26.0117 51.3081C26.1681 51.3602 26.3319 51.387 26.4943 51.387C26.6567 51.387 26.8205 51.3601 26.977 51.3081L45.2818 45.2064C45.9045 44.9994 46.3246 44.4169 46.3246 43.7599V21.2852H26.4943Z" fill="#C0D647" fill-opacity="0.64"/>
<path d="M45.2816 45.2063C45.9043 44.9993 46.3244 44.4168 46.3244 43.7598V21.2852H26.4941V51.387C26.6565 51.387 26.8204 51.3601 26.9768 51.3081L45.2816 45.2063Z" fill="#C0D647"/>
<path d="M30.3087 0.132812C28.8275 0.132812 27.5201 0.705754 26.4952 1.79672C25.4703 0.705754 24.1629 0.132812 22.6817 0.132812C19.6879 0.132812 17.3428 2.48132 17.3428 5.47945C17.3428 8.64996 19.9584 10.6878 23.5784 13.5083C24.2059 13.9971 24.8546 14.5025 25.5423 15.0527C25.8209 15.2755 26.1581 15.387 26.4952 15.387C26.8323 15.387 27.1695 15.2755 27.4481 15.0527C28.1358 14.5025 28.7845 13.9971 29.412 13.5083C33.0321 10.6878 35.6476 8.64996 35.6476 5.47945C35.6476 2.48132 33.3025 0.132812 30.3087 0.132812Z" fill="#214228"/>
<path d="M27.447 15.0527C28.1348 14.5025 28.7835 13.9971 29.4109 13.5083C33.031 10.6878 35.6466 8.65006 35.6466 5.47945C35.6466 2.48132 33.3014 0.132812 30.3077 0.132812C28.8265 0.132812 27.519 0.705754 26.4941 1.79672V15.3869C26.8313 15.387 27.1685 15.2756 27.447 15.0527Z" fill="#C0D647"/>
<path d="M52.2716 24.5074L46.0683 15.3549C45.6854 14.7814 44.9659 14.5297 44.3164 14.7546L26.4942 20.6954L8.67212 14.7546C8.01812 14.5312 7.30017 14.7815 6.92024 15.3549L0.716933 24.5074C0.154262 25.3529 0.559816 26.4884 1.50343 26.7999L19.91 32.9016C20.5578 33.1194 21.2784 32.8762 21.6618 32.3013L26.4943 25.0526L31.3268 32.3013C31.7106 32.8768 32.4316 33.1193 33.0787 32.9016L51.4852 26.7999C52.4305 26.4878 52.8331 25.3511 52.2716 24.5074Z" fill="#FFF5CA"/>
<path d="M33.0785 32.9016L51.485 26.7999C52.4304 26.4878 52.833 25.3511 52.2715 24.5074L46.0682 15.3549C45.6853 14.7814 44.9659 14.5297 44.3163 14.7546L26.4941 20.6954V25.0526L31.3266 32.3013C31.7104 32.8768 32.4314 33.1193 33.0785 32.9016Z" fill="#214228" fill-opacity="0.25"/>
</svg>
