<svg width="21" height="15" viewBox="0 0 21 15" fill="none" xmlns="http://www.w3.org/2000/svg">
<path d="M20.0913 5.78139C19.8643 5.50733 19.5495 5.3202 19.2003 5.25173C19.2256 4.9619 19.2667 4.60563 19.3205 4.19304C19.4107 3.80755 19.4207 3.40763 19.3498 3.01813C19.2789 2.62863 19.1287 2.25785 18.9086 1.92883C18.7694 1.76286 18.5965 1.6283 18.4015 1.53405C18.2064 1.43981 17.9936 1.38801 17.7771 1.38208C17.5714 1.36943 17.3658 1.38525 17.1645 1.42891C17.0705 1.05571 16.8447 0.729129 16.5286 0.509515C16.2126 0.289901 15.8277 0.192093 15.4452 0.234161C15.1091 0.228672 14.7799 0.329831 14.5048 0.523111C14.2298 0.716392 14.0231 0.991853 13.9144 1.30994C13.7445 1.26499 13.5694 1.24265 13.3936 1.2435C13.0544 1.21793 12.7165 1.30754 12.4346 1.49783C12.1527 1.68812 11.9432 1.96795 11.84 2.29207C11.76 2.38641 11.7099 2.50255 11.6964 2.62556C11.6059 2.61144 11.5146 2.60404 11.423 2.60341C11.0122 2.59629 10.6139 2.74533 10.3086 3.02043C10.0035 2.74553 9.60553 2.59651 9.19489 2.60341C9.08858 2.60341 8.9829 2.61164 8.87848 2.62872C8.83096 2.2305 8.63327 1.86542 8.32574 1.60799C8.01822 1.35057 7.62405 1.2202 7.22368 1.2435C7.04812 1.24265 6.87321 1.26499 6.70351 1.30994C6.5946 0.991856 6.38775 0.716431 6.11264 0.523168C5.83752 0.329905 5.50827 0.228733 5.1721 0.234161C4.79016 0.192763 4.40611 0.290641 4.09057 0.509797C3.77503 0.728953 3.54922 1.05465 3.45465 1.42701C3.25369 1.38258 3.04746 1.36682 2.84208 1.38018C2.62565 1.3862 2.41296 1.43804 2.21803 1.53228C2.0231 1.62653 1.85038 1.76104 1.71125 1.92693C1.49116 2.256 1.34098 2.62675 1.27001 3.01622C1.19904 3.40569 1.20879 3.80559 1.29865 4.19114C1.35308 4.60373 1.39358 4.96 1.41889 5.24983C1.06884 5.31869 0.753373 5.50649 0.525989 5.78139C0.100739 6.30536 0.0374579 7.09005 0.331716 8.24936L0.432333 8.65246C0.963895 10.804 1.95108 14.8066 5.9378 14.8066C8.39691 14.8066 9.66444 13.6042 10.308 11.9589C10.9522 13.6042 12.2197 14.8066 14.6788 14.8066C18.6656 14.8066 19.6534 10.8028 20.1843 8.65183L20.2875 8.24936C20.5811 7.09005 20.5191 6.30536 20.0913 5.78139ZM5.93843 13.5409C3.17557 13.5409 2.31052 10.9762 1.66125 8.34808L1.55874 7.93675C1.29612 6.90654 1.47015 6.62367 1.50811 6.57747C1.52798 6.55496 1.55234 6.53685 1.57962 6.52432C1.70745 6.53065 1.83275 6.56482 1.94665 6.62303C2.11561 6.70467 2.24787 6.84579 2.31811 7.01981C2.60604 7.7159 2.85474 8.51261 2.99839 8.99545C3.04716 9.15521 3.15711 9.28921 3.30428 9.36822C3.45144 9.44724 3.62388 9.46487 3.78399 9.41726C3.94409 9.36965 4.07889 9.26067 4.15897 9.11409C4.23905 8.9675 4.25793 8.7952 4.21149 8.63475C4.06531 8.14179 3.80143 7.29508 3.48755 6.53634C3.33194 6.15234 3.05911 5.82724 2.70793 5.60737C2.69274 5.23211 2.64465 4.717 2.55099 4.02534C2.44109 3.59367 2.4875 3.13704 2.68198 2.7363C2.70983 2.70487 2.74448 2.68021 2.7833 2.6642C2.82212 2.64819 2.86409 2.64125 2.906 2.64391C3.16735 2.63189 3.24898 2.66479 3.33694 2.78376L3.48692 5.54725C3.49137 5.6304 3.51218 5.71185 3.54816 5.78693C3.58414 5.86202 3.63459 5.92927 3.69661 5.98482C3.75863 6.04038 3.83101 6.08314 3.90959 6.11068C3.98817 6.13821 4.07141 6.14996 4.15454 6.14526C4.23762 6.14098 4.31905 6.12032 4.39412 6.08447C4.4692 6.04862 4.53646 5.99829 4.59203 5.93637C4.6476 5.87445 4.69038 5.80216 4.71793 5.72366C4.74548 5.64515 4.75724 5.56198 4.75254 5.47891L4.59371 2.58126C4.59371 1.49852 4.7633 1.49852 5.1721 1.49852C5.25518 1.50354 5.3345 1.53489 5.39856 1.58803C5.46262 1.64116 5.50809 1.71332 5.52837 1.79404V5.02139C5.52837 5.18922 5.59504 5.35018 5.71372 5.46885C5.83239 5.58753 5.99335 5.6542 6.16118 5.6542C6.32902 5.6542 6.48998 5.58753 6.60865 5.46885C6.72733 5.35018 6.794 5.18922 6.794 5.02139V2.71162C6.80528 2.69644 6.81563 2.68059 6.82501 2.66416C6.84083 2.63821 6.93195 2.50659 7.22368 2.50659C7.38251 2.50659 7.51983 2.51165 7.60336 2.74453L7.62615 5.89087C7.62732 6.05793 7.6945 6.21776 7.81305 6.33548C7.9316 6.4532 8.09189 6.51926 8.25896 6.51925H8.26402C8.34712 6.51867 8.4293 6.50173 8.50585 6.46939C8.58241 6.43705 8.65184 6.38995 8.71019 6.33078C8.76855 6.27161 8.81467 6.20152 8.84593 6.12452C8.8772 6.04752 8.89299 5.96511 8.8924 5.88201L8.87848 3.9513C8.97337 3.89266 9.08339 3.86317 9.19489 3.8665C9.57458 3.8665 9.64229 4.24619 9.65304 4.362V4.38541C9.65874 4.57082 9.6733 5.27641 9.6733 7.50961C9.67583 11.7931 8.59308 13.5409 5.93843 13.5409ZM19.0592 7.93675L18.9567 8.34808C18.3074 10.9762 17.4423 13.5409 14.6795 13.5409C12.0217 13.5409 10.9415 11.7937 10.9415 7.50961C10.9415 5.27704 10.9566 4.57146 10.9617 4.38604L10.9649 4.36136C10.9756 4.24556 11.0408 3.8665 11.423 3.8665C11.509 3.86579 11.5941 3.88303 11.673 3.91713L11.6584 5.87885C11.6577 5.96197 11.6733 6.04443 11.7045 6.1215C11.7356 6.19857 11.7817 6.26874 11.84 6.32799C11.8983 6.38724 11.9677 6.4344 12.0443 6.46679C12.1209 6.49918 12.2031 6.51614 12.2862 6.51672H12.2912C12.4582 6.51673 12.6184 6.45075 12.7369 6.33317C12.8555 6.21559 12.9227 6.05593 12.9241 5.88897L12.9449 3.08435C13.0082 2.51482 13.1803 2.50406 13.3936 2.50406C13.5245 2.49358 13.6546 2.53265 13.7581 2.61354V5.01822C13.7581 5.18606 13.8248 5.34701 13.9434 5.46569C14.0621 5.58436 14.2231 5.65104 14.3909 5.65104C14.5587 5.65104 14.7197 5.58436 14.8384 5.46569C14.9571 5.34701 15.0237 5.18606 15.0237 5.01822V2.01553C15.0699 1.7624 15.1813 1.49789 15.4452 1.49789C15.7869 1.49789 15.9597 1.50738 16.0077 2.13703C15.993 2.17631 15.9824 2.21703 15.9761 2.25853L15.8015 5.47764C15.7945 5.60417 15.8257 5.72986 15.891 5.83844C15.9563 5.94703 16.0527 6.03351 16.1677 6.08669C16.2828 6.13987 16.4111 6.15729 16.5361 6.13671C16.6611 6.11612 16.7771 6.05848 16.869 5.97124C16.9868 5.86 17.0575 5.70779 17.0664 5.54599L17.2107 2.88818L17.2164 2.88122C17.3386 2.68504 17.381 2.62809 17.7132 2.64328C17.7551 2.64061 17.7971 2.64755 17.8359 2.66356C17.8747 2.67957 17.9093 2.70424 17.9372 2.73567C18.1315 3.13624 18.1777 3.59313 18.0682 4.02471C17.9802 4.69106 17.9302 5.19478 17.9125 5.56687C17.53 5.78602 17.2321 6.12717 17.0664 6.53571C16.75 7.29508 16.4893 8.14115 16.3425 8.63411C16.2961 8.79456 16.3149 8.96687 16.395 9.11345C16.4751 9.26004 16.6099 9.36902 16.77 9.41663C16.9301 9.46423 17.1026 9.44661 17.2497 9.36759C17.3969 9.28857 17.5068 9.15458 17.5556 8.99482C17.6993 8.51198 17.9486 7.7159 18.2359 7.01918C18.3065 6.84562 18.4388 6.7043 18.6073 6.6224C18.7301 6.55912 18.8649 6.52432 19.0028 6.52052V6.50976C19.0437 6.52288 19.0807 6.54593 19.1104 6.57684C19.1484 6.62367 19.3212 6.90654 19.0592 7.93675Z" fill="white"/>
</svg>
