<svg width="26" height="26" viewBox="0 0 26 26" fill="none" xmlns="http://www.w3.org/2000/svg">
<path d="M13.0001 8.50757C10.7064 8.50757 8.83452 10.3794 8.83452 12.6732C8.83452 14.9669 10.7064 16.8388 13.0001 16.8388C15.2939 16.8388 17.1658 14.9669 17.1658 12.6732C17.1658 10.3794 15.2939 8.50757 13.0001 8.50757ZM25.4939 12.6732C25.4939 10.9482 25.5095 9.23882 25.4126 7.51694C25.3158 5.51694 24.8595 3.74194 23.397 2.27944C21.9314 0.81382 20.1595 0.360695 18.1595 0.26382C16.4345 0.166945 14.7251 0.18257 13.0033 0.18257C11.2783 0.18257 9.5689 0.166945 7.84702 0.26382C5.84702 0.360695 4.07202 0.816945 2.60952 2.27944C1.1439 3.74507 0.690773 5.51694 0.593898 7.51694C0.497023 9.24195 0.512648 10.9513 0.512648 12.6732C0.512648 14.3951 0.497023 16.1076 0.593898 17.8294C0.690773 19.8294 1.14702 21.6044 2.60952 23.0669C4.07515 24.5326 5.84702 24.9857 7.84702 25.0826C9.57202 25.1794 11.2814 25.1638 13.0033 25.1638C14.7283 25.1638 16.4376 25.1794 18.1595 25.0826C20.1595 24.9857 21.9345 24.5294 23.397 23.0669C24.8626 21.6013 25.3158 19.8294 25.4126 17.8294C25.5126 16.1076 25.4939 14.3982 25.4939 12.6732ZM13.0001 19.0826C9.45327 19.0826 6.59077 16.2201 6.59077 12.6732C6.59077 9.12632 9.45327 6.26382 13.0001 6.26382C16.547 6.26382 19.4095 9.12632 19.4095 12.6732C19.4095 16.2201 16.547 19.0826 13.0001 19.0826ZM19.672 7.49819C18.8439 7.49819 18.1751 6.82944 18.1751 6.00132C18.1751 5.17319 18.8439 4.50445 19.672 4.50445C20.5001 4.50445 21.1689 5.17319 21.1689 6.00132C21.1691 6.19796 21.1306 6.39272 21.0555 6.57444C20.9803 6.75616 20.8701 6.92127 20.731 7.06032C20.592 7.19937 20.4269 7.30962 20.2451 7.38476C20.0634 7.45989 19.8687 7.49844 19.672 7.49819Z" fill="#8BC34A"/>
</svg>
