<svg width="28" height="29" viewBox="0 0 28 29" fill="none" xmlns="http://www.w3.org/2000/svg">
<path d="M14 0.673828C6.26875 0.673828 0 6.94258 0 14.6738C0 22.4051 6.26875 28.6738 14 28.6738C21.7313 28.6738 28 22.4051 28 14.6738C28 6.94258 21.7313 0.673828 14 0.673828ZM20.7281 11.227C20.7375 11.3738 20.7375 11.527 20.7375 11.677C20.7375 16.2645 17.2437 21.5488 10.8594 21.5488C8.89062 21.5488 7.06562 20.977 5.52812 19.9926C5.80937 20.0238 6.07813 20.0363 6.36563 20.0363C7.99063 20.0363 9.48438 19.4863 10.675 18.5551C9.15 18.5238 7.86875 17.5238 7.43125 16.1488C7.96562 16.227 8.44687 16.227 8.99687 16.0863C8.21164 15.9268 7.50586 15.5003 6.99943 14.8794C6.49299 14.2585 6.21715 13.4813 6.21875 12.6801V12.6363C6.67812 12.8957 7.21875 13.0551 7.78438 13.077C7.30888 12.7601 6.91893 12.3307 6.6491 11.827C6.37926 11.3234 6.23789 10.7609 6.2375 10.1895C6.2375 9.54258 6.40625 8.95195 6.70938 8.43945C7.58095 9.51238 8.66853 10.3899 9.90145 11.015C11.1344 11.64 12.485 11.9987 13.8656 12.0676C13.375 9.7082 15.1375 7.79883 17.2563 7.79883C18.2563 7.79883 19.1562 8.21758 19.7906 8.89258C20.575 8.7457 21.325 8.45195 21.9937 8.0582C21.7344 8.86133 21.1906 9.53945 20.4688 9.96758C21.1688 9.89258 21.8438 9.69883 22.4688 9.42695C21.9969 10.1207 21.4062 10.7363 20.7281 11.227Z" fill="#8BC34A"/>
</svg>
