<svg width="192" height="45" viewBox="0 0 192 45" fill="none" xmlns="http://www.w3.org/2000/svg">
<path d="M23.3218 15.1315C23.1586 15.2043 23.0094 15.2453 22.8572 15.2453C22.5017 15.2453 22.1637 15.0241 21.6239 14.6876C20.9779 14.2853 19.9802 13.5891 18.8949 12.5584C17.8958 11.6096 17.0583 10.6015 16.4047 9.56184C15.773 8.55705 15.3327 7.547 15.0915 6.55446C15.055 6.50911 15.018 6.46393 14.9812 6.4198C14.3854 5.71462 13.88 5.45178 13.7015 5.45178C13.597 5.45353 13.3704 5.60588 13.1696 5.85839C12.6949 6.45605 12.1631 7.75066 12.7593 10.3761C15.4705 15.578 21.1761 19.0288 22.8572 19.0288C23.0949 19.0288 23.4129 18.96 23.7914 18.8271C23.5314 17.8307 23.36 16.5483 23.3218 15.1315Z" fill="white"/>
<path d="M29.309 0C27.0803 0 24.5826 1.16975 22.857 3.56687C21.1318 1.16958 18.6343 0 16.4056 0C15.5967 0 14.8233 0.154624 14.1348 0.459846C15.3812 0.565263 17.0848 1.1617 18.7898 3.18004C19.5872 4.1239 20.2606 5.21152 20.8035 6.43048C21.4511 7.25509 22.1405 8.31557 22.857 9.6797C25.8163 4.0479 28.3127 3.57895 29.309 3.57895C29.5648 3.57895 30.194 3.62028 30.5076 4.00272C30.8234 4.38832 30.8957 5.21117 30.7008 6.20389C30.4838 7.30902 30.0158 8.43867 29.3101 9.56184C29.1643 9.79334 29.0092 10.0233 28.8455 10.2514C28.6117 11.1175 28.4518 12.0462 28.3689 13.0243C28.267 14.2291 28.3045 15.2441 28.3694 15.9676C30.9147 13.806 33.4661 10.6349 34.2 6.89558C35.0915 2.35404 32.4709 0 29.309 0Z" fill="#C0D647"/>
<path d="M28.4132 18.041C28.2548 17.9583 28.1302 17.8667 28.0352 17.7475C27.8138 17.4685 27.7752 17.0654 27.7007 16.4319C27.6115 15.6741 27.5316 14.4573 27.6581 12.9636C27.7745 11.5886 28.038 10.3024 28.4403 9.14157C28.8294 8.01963 29.3418 7.04425 29.965 6.23593C29.9776 6.1792 29.9896 6.12211 30.001 6.06572C30.179 5.15864 30.0687 4.59828 29.9573 4.45837C29.8908 4.37746 29.6308 4.29464 29.309 4.29464C28.5474 4.29464 27.2072 4.68496 25.533 6.78946C23.1705 12.1598 24.039 18.7878 25.0873 20.1066C25.2353 20.2927 25.4873 20.4992 25.8269 20.7134C26.4412 19.8882 27.3335 18.954 28.4132 18.041Z" fill="white"/>
<path d="M43.9365 13.3035C42.5468 11.555 40.0783 10.325 37.1348 10.4661C37.9269 7.61792 37.281 4.92942 35.8913 3.18092C35.3868 2.54631 34.7846 2.03603 34.1174 1.68616C34.8123 2.72965 35.4095 4.43788 34.9001 7.03392C34.6617 8.24798 34.2342 9.45415 33.6232 10.64C33.3841 11.6625 32.9879 12.8646 32.3719 14.2773C38.6049 13.0874 40.5266 14.7534 41.1479 15.5349C41.3076 15.7356 41.6674 16.255 41.5648 16.7392C41.4611 17.2276 40.8655 17.7974 39.9703 18.2635C38.9743 18.782 37.8019 19.1193 36.487 19.2661C36.2154 19.296 35.9399 19.3179 35.6598 19.3317C34.8394 19.6881 34.016 20.142 33.2023 20.6867C32.1997 21.3578 31.4323 22.0201 30.9091 22.5224C34.1804 23.1714 38.2421 23.1958 41.613 21.4403C45.7076 19.3081 45.9078 15.7839 43.9365 13.3035Z" fill="#C0D647"/>
<path d="M29.3212 23.8491C29.2868 23.6735 29.2802 23.5185 29.3141 23.3698C29.3933 23.022 29.6835 22.7405 30.1304 22.2869C30.6653 21.7444 31.5634 20.9231 32.8063 20.0912C33.9504 19.3251 35.1165 18.7299 36.2721 18.322C37.389 17.9277 38.4682 17.7217 39.4865 17.7063C39.5387 17.6808 39.5905 17.655 39.6417 17.6284C40.4593 17.2025 40.827 16.7667 40.8669 16.5919C40.8884 16.4895 40.7907 16.2338 40.59 15.9813C40.1153 15.3838 38.9755 14.5758 36.292 14.5744C30.6344 16.0694 26.0121 20.883 25.6377 22.5277C25.5849 22.7604 25.581 23.0868 25.6261 23.4866C26.652 23.4539 27.9363 23.5714 29.3212 23.8491Z" fill="white"/>
<path d="M42.6908 33.0735C43.1867 30.8932 42.606 28.1898 40.661 25.9683C43.374 24.8138 45.0663 22.6308 45.5621 20.4502C45.7422 19.6588 45.7641 18.868 45.6205 18.127C45.2408 19.3226 44.2825 20.8563 41.9419 22.0752C40.8474 22.6452 39.6408 23.062 38.3361 23.322C37.3904 23.7722 36.2067 24.2107 34.7219 24.6082C39.5354 28.7561 39.4352 31.3024 39.2136 32.2771C39.1567 32.5275 38.9764 33.1339 38.5352 33.3551C38.0902 33.5787 37.2747 33.4661 36.3535 33.0544C35.3284 32.5963 34.3347 31.8871 33.4007 30.9468C33.2078 30.7526 33.019 30.5496 32.8339 30.3389C32.0447 29.9175 31.1777 29.5543 30.2458 29.2557C29.098 28.8878 28.1035 28.6988 27.3857 28.6017C28.9197 31.5724 31.433 34.7739 34.9029 36.3241C39.1171 38.2069 41.9871 36.1665 42.6908 33.0735Z" fill="#C0D647"/>
<path d="M25.3617 28.183C25.4772 28.0462 25.5939 27.9448 25.7309 27.8783C26.0512 27.7236 26.4517 27.7758 27.0836 27.8436C27.8394 27.925 29.0396 28.1178 30.4629 28.574C31.7732 28.9939 32.9639 29.5376 34.002 30.1898C35.0055 30.8202 35.8392 31.5383 36.4857 32.3277C36.5383 32.3526 36.5906 32.3771 36.6433 32.4007C37.485 32.7765 38.0539 32.7933 38.2147 32.7156C38.308 32.6686 38.4462 32.4326 38.5178 32.1177C38.6874 31.3726 38.6064 29.9749 36.9341 27.8686C32.2419 24.3624 25.6091 23.7374 24.0945 24.4693C23.8807 24.5727 23.624 24.7733 23.3406 25.0577C24.0053 25.8424 24.7146 26.9234 25.3617 28.183Z" fill="white"/>
<path d="M26.5101 44.4226C28.5181 43.4526 30.2626 41.3111 30.7809 38.4003C33.3719 39.8087 36.1278 39.7752 38.1358 38.8048C38.8647 38.4526 39.4947 37.9767 39.9828 37.4021C38.8143 37.8497 37.0217 38.0541 34.613 36.978C33.4864 36.4747 32.4096 35.7879 31.3929 34.9264C30.453 34.4651 29.3732 33.8099 28.1378 32.893C27.907 39.2552 25.8604 40.7646 24.9629 41.1984C24.7324 41.3097 24.1476 41.5465 23.6998 41.3383C23.2483 41.1283 22.8275 40.4184 22.5738 39.4392C22.2914 38.3493 22.2246 37.1275 22.375 35.8086C22.4059 35.5363 22.4464 35.2615 22.4951 34.9847C22.3316 34.103 22.074 33.1964 21.7257 32.2792C21.2967 31.1492 20.8239 30.251 20.4524 29.6276C19.0942 32.6832 18.1666 36.6511 19.1223 40.3396C20.2828 44.8199 23.6614 45.7989 26.5101 44.4226Z" fill="#C0D647"/>
<path d="M19.5161 27.7786C19.6947 27.7842 19.8468 27.8121 19.9837 27.8786C20.3037 28.0332 20.5128 28.38 20.854 28.9181C21.262 29.5618 21.8599 30.6233 22.392 32.0244C22.8818 33.3143 23.2005 34.5872 23.3397 35.8086C23.4745 36.9887 23.4342 38.0905 23.2223 39.09C23.2356 39.1469 23.2492 39.2031 23.2637 39.2592C23.4954 40.1537 23.8371 40.6105 23.9982 40.6884C24.0931 40.7326 24.3629 40.6937 24.653 40.5536C25.3392 40.2221 26.3779 39.2872 26.9764 36.6621C26.7827 30.7949 23.1342 25.2018 21.6196 24.4699C21.4056 24.3666 21.0894 24.29 20.691 24.245C20.4941 25.256 20.0943 26.4858 19.5161 27.7786Z" fill="white"/>
<path d="M7.57882 38.8049C9.58696 39.7754 12.3429 39.8089 14.9341 38.4004C15.452 41.3115 17.1965 43.4528 19.2046 44.4229C19.9336 44.7751 20.6971 44.9724 21.4491 44.9971C20.3718 44.3595 19.095 43.0805 18.4315 40.5198C18.1212 39.3222 17.9848 38.049 18.0225 36.715C17.7954 35.6895 17.6331 34.434 17.5771 32.8931C12.476 36.6789 10.0241 36.0143 9.12642 35.5806C8.89588 35.4692 8.34669 35.158 8.22994 34.677C8.11179 34.1921 8.40253 33.4192 9.00757 32.6096C9.68085 31.7087 10.5908 30.8944 11.7125 30.1899C11.944 30.0444 12.1832 29.905 12.4295 29.7705C13.0144 29.092 13.5601 28.325 14.0578 27.4797C14.6707 26.4385 15.076 25.5078 15.3299 24.8276C12.1021 25.6669 8.4322 27.4132 6.15391 30.4626C3.38699 34.1664 4.73022 37.4284 7.57882 38.8049Z" fill="#C0D647"/>
<path d="M16.1866 22.9408C16.2935 23.0842 16.3667 23.2212 16.4004 23.3698C16.4794 23.7174 16.3398 24.0976 16.133 24.7008C15.8855 25.4225 15.4316 26.5534 14.6718 27.8441C13.972 29.0323 13.1786 30.0763 12.3141 30.9469C11.4783 31.7885 10.595 32.444 9.68416 32.9008C9.64821 32.9467 9.61261 32.9928 9.57823 33.039C9.02572 33.7785 8.88297 34.3313 8.92241 34.5061C8.94736 34.6078 9.14596 34.7957 9.43583 34.9358C10.1222 35.2677 11.4984 35.4993 13.9167 34.332C18.3675 30.5223 20.4507 24.1725 20.0767 22.5277C20.024 22.2953 19.8859 21.9997 19.6727 21.6591C18.7624 22.1351 17.5546 22.5881 16.1866 22.9408Z" fill="white"/>
<path d="M0.152535 20.4503C0.648505 22.631 2.34042 24.814 5.05377 25.9685C3.10846 28.19 2.52768 30.8934 3.02382 33.0737C3.20375 33.8652 3.5259 34.5872 3.97615 35.1927C3.80093 33.9498 4.00145 32.1508 5.58325 30.0337C6.32249 29.044 7.22962 28.1429 8.29293 27.3407C8.94998 26.5236 9.82692 25.613 10.9927 24.6086C4.86268 22.9669 3.85154 20.629 3.62991 19.6545C3.57302 19.404 3.47302 18.7796 3.77493 18.3879C4.07946 17.9928 4.86268 17.7391 5.87068 17.7086C6.99263 17.675 8.19433 17.8814 9.44281 18.3222C9.70039 18.4129 9.95815 18.5134 10.2163 18.623C11.1094 18.6591 12.0476 18.609 13.0162 18.4723C14.2097 18.3042 15.1875 18.0417 15.8758 17.8167C13.2094 15.8078 9.56043 14.0174 5.76405 14.1316C1.15303 14.2701 -0.551107 17.3577 0.152535 20.4503Z" fill="#C0D647"/>
<path d="M17.8802 17.3123C17.8352 17.4855 17.7741 17.6281 17.6794 17.7475C17.4577 18.0263 17.0745 18.1537 16.4757 18.3677C15.7594 18.6236 14.5948 18.9724 13.1153 19.181C11.753 19.3732 10.445 19.4018 9.22763 19.2662C8.05106 19.1352 6.98949 18.851 6.06543 18.4211C6.00749 18.4217 5.94938 18.4225 5.89179 18.4241C4.97088 18.4516 4.45117 18.6843 4.33966 18.8242C4.27596 18.9074 4.25345 19.1801 4.325 19.4951C4.49445 20.2402 5.17175 21.4642 7.58929 22.6338C13.3329 23.75 19.5791 21.4254 20.6273 20.1066C20.7754 19.9201 20.9198 19.6278 21.052 19.248C20.1137 18.8307 19.0076 18.1655 17.8802 17.3123Z" fill="white"/>
<path d="M9.82343 3.18092C8.43377 4.92942 7.78789 7.61792 8.57984 10.4661C5.6363 10.3252 3.16762 11.5552 1.77814 13.3035C1.27362 13.9381 0.911848 14.6412 0.720755 15.3714C1.57989 14.4596 3.10672 13.495 5.74241 13.4161C6.975 13.3789 8.24215 13.5287 9.53024 13.8624C10.5768 13.8687 11.8328 13.989 13.3425 14.2773C10.7993 8.44463 11.9904 6.19373 12.6115 5.4122C12.7711 5.21135 13.1956 4.74362 13.6889 4.73627C14.1861 4.72874 14.8727 5.18508 15.5246 5.95698C16.2504 6.81608 16.8389 7.88742 17.2738 9.14157C17.3633 9.40022 17.4459 9.66516 17.5216 9.93606C18.0507 10.6591 18.6746 11.3639 19.3849 12.0386C20.2601 12.8699 21.0742 13.4733 21.6785 13.8731C21.5813 10.5286 20.7009 6.54991 18.2453 3.64287C15.2623 0.111547 11.7947 0.700275 9.82343 3.18092Z" fill="#C0D647"/>
<path d="M64.1891 15.3978C65.9687 15.3978 67.446 16.0463 68.6212 17.3434C69.7964 18.6237 70.3839 20.224 70.3839 22.1444C70.3839 24.0648 69.7964 25.6736 68.6212 26.9707C67.446 28.251 65.9687 28.8911 64.1891 28.8911C63.1651 28.8911 62.2417 28.6384 61.4191 28.133C60.6133 27.6108 59.9753 26.8949 59.5053 25.9852V28.5879H56.6345V10.3946H59.5053V18.3036C59.9753 17.394 60.6133 16.6865 61.4191 16.1811C62.2417 15.6589 63.1651 15.3978 64.1891 15.3978ZM60.6385 24.3428C61.3939 24.9155 62.3341 25.2019 63.4589 25.2019C64.5837 25.2019 65.5238 24.9155 66.2793 24.3428C67.0347 23.7532 67.4125 23.0204 67.4125 22.1444C67.4125 21.2685 67.0347 20.5441 66.2793 19.9713C65.5238 19.3818 64.5837 19.087 63.4589 19.087C62.3341 19.087 61.3939 19.3818 60.6385 19.9713C59.883 20.5441 59.5053 21.2685 59.5053 22.1444C59.5053 23.0204 59.883 23.7532 60.6385 24.3428Z" fill="white"/>
<path d="M85.6893 22.2202C85.6893 22.5908 85.6641 22.9278 85.6138 23.231H74.8107C75.0793 23.9385 75.5661 24.4944 76.2712 24.8987C76.9931 25.303 77.8577 25.5051 78.865 25.5051C80.4599 25.5051 81.6014 25.1766 82.2898 24.5197H85.4627C84.9758 25.8336 84.128 26.8949 82.9193 27.7035C81.7273 28.4952 80.3507 28.8911 78.7894 28.8911C76.8085 28.8911 75.1548 28.251 73.8286 26.9707C72.5023 25.6736 71.8392 24.0648 71.8392 22.1444C71.8392 20.224 72.4939 18.6237 73.8034 17.3434C75.1296 16.0463 76.7833 15.3978 78.7643 15.3978C80.7453 15.3978 82.3905 16.0463 83.7 17.3434C85.0262 18.6237 85.6893 20.2493 85.6893 22.2202ZM78.7643 18.7837C77.8241 18.7837 77.0015 18.9859 76.2964 19.3902C75.5913 19.7945 75.1045 20.342 74.8359 21.0326H82.743C82.4912 20.342 82.0044 19.7945 81.2825 19.3902C80.5606 18.9859 79.7212 18.7837 78.7643 18.7837Z" fill="white"/>
<path d="M95.5568 19.3144H91.8298V23.6858C91.8298 24.5281 92.3754 24.9492 93.4667 24.9492H95.305V28.5879H93.1393C90.3357 28.5879 88.9339 27.2486 88.9339 24.5702V19.3144H86.4409V15.701H88.9339V12.7193L91.8298 11.9107V15.701H95.5568V19.3144Z" fill="white"/>
<path d="M105.984 19.3144H102.257V23.6858C102.257 24.5281 102.802 24.9492 103.894 24.9492H105.732V28.5879H103.566C100.763 28.5879 99.3608 27.2486 99.3608 24.5702V19.3144H96.8678V15.701H99.3608V12.7193L102.257 11.9107V15.701H105.984V19.3144Z" fill="white"/>
<path d="M120.88 22.2202C120.88 22.5908 120.855 22.9278 120.805 23.231H110.002C110.27 23.9385 110.757 24.4944 111.462 24.8987C112.184 25.303 113.049 25.5051 114.056 25.5051C115.651 25.5051 116.792 25.1766 117.481 24.5197H120.654C120.167 25.8336 119.319 26.8949 118.11 27.7035C116.918 28.4952 115.542 28.8911 113.98 28.8911C111.999 28.8911 110.346 28.251 109.02 26.9707C107.693 25.6736 107.03 24.0648 107.03 22.1444C107.03 20.224 107.685 18.6237 108.994 17.3434C110.321 16.0463 111.974 15.3978 113.955 15.3978C115.936 15.3978 117.581 16.0463 118.891 17.3434C120.217 18.6237 120.88 20.2493 120.88 22.2202ZM113.955 18.7837C113.015 18.7837 112.192 18.9859 111.487 19.3902C110.782 19.7945 110.295 20.342 110.027 21.0326H117.934C117.682 20.342 117.195 19.7945 116.473 19.3902C115.752 18.9859 114.912 18.7837 113.955 18.7837Z" fill="white"/>
<path d="M125.903 18.9101C126.424 17.832 127.079 16.9981 127.868 16.4085C128.673 15.8021 129.58 15.4988 130.587 15.4988V20.0472C129.06 20.0472 127.893 20.3167 127.087 20.8557C126.298 21.3948 125.903 22.1697 125.903 23.1804V28.5879H123.033V15.701H125.903V18.9101Z" fill="white"/>
<path d="M140.08 15.3978C141.558 15.3978 142.741 15.8442 143.631 16.737C144.537 17.6298 144.991 18.8174 144.991 20.2998V28.5879H142.12V21.538C142.12 20.7968 141.818 20.2072 141.213 19.7692C140.626 19.3144 139.837 19.087 138.846 19.087C137.805 19.087 136.966 19.3144 136.328 19.7692C135.69 20.224 135.371 20.8305 135.371 21.5885V28.5879H132.5V10.3946H135.371V18.5058C136.362 16.4338 137.931 15.3978 140.08 15.3978Z" fill="white"/>
<path d="M158.779 26.9707C157.469 28.251 155.824 28.8911 153.843 28.8911C151.862 28.8911 150.209 28.251 148.882 26.9707C147.573 25.6736 146.918 24.0648 146.918 22.1444C146.918 20.224 147.573 18.6237 148.882 17.3434C150.209 16.0463 151.862 15.3978 153.843 15.3978C155.824 15.3978 157.469 16.0463 158.779 17.3434C160.105 18.6237 160.768 20.224 160.768 22.1444C160.768 24.0648 160.105 25.6736 158.779 26.9707ZM151.023 24.3428C151.778 24.9155 152.718 25.2019 153.843 25.2019C154.968 25.2019 155.9 24.9155 156.638 24.3428C157.394 23.7532 157.772 23.0204 157.772 22.1444C157.772 21.2685 157.394 20.5441 156.638 19.9713C155.9 19.3818 154.968 19.087 153.843 19.087C152.718 19.087 151.778 19.3818 151.023 19.9713C150.267 20.5441 149.89 21.2685 149.89 22.1444C149.89 23.0204 150.267 23.7532 151.023 24.3428Z" fill="white"/>
<path d="M170.5 15.3978C172.279 15.3978 173.757 16.0463 174.932 17.3434C176.107 18.6237 176.695 20.224 176.695 22.1444C176.695 24.0648 176.107 25.6736 174.932 26.9707C173.757 28.251 172.279 28.8911 170.5 28.8911C169.476 28.8911 168.552 28.6384 167.73 28.133C166.924 27.6108 166.286 26.8949 165.816 25.9852V33.3889H162.945V15.701H165.816V18.3036C166.286 17.394 166.924 16.6865 167.73 16.1811C168.552 15.6589 169.476 15.3978 170.5 15.3978ZM166.949 24.3428C167.705 24.9155 168.645 25.2019 169.77 25.2019C170.894 25.2019 171.834 24.9155 172.59 24.3428C173.345 23.7532 173.723 23.0204 173.723 22.1444C173.723 21.2685 173.345 20.5441 172.59 19.9713C171.834 19.3818 170.894 19.087 169.77 19.087C168.645 19.087 167.705 19.3818 166.949 19.9713C166.194 20.5441 165.816 21.2685 165.816 22.1444C165.816 23.0204 166.194 23.7532 166.949 24.3428Z" fill="white"/>
<path d="M192 22.2202C192 22.5908 191.975 22.9278 191.924 23.231H181.121C181.39 23.9385 181.877 24.4944 182.582 24.8987C183.304 25.303 184.168 25.5051 185.176 25.5051C186.771 25.5051 187.912 25.1766 188.6 24.5197H191.773C191.287 25.8336 190.439 26.8949 189.23 27.7035C188.038 28.4952 186.661 28.8911 185.1 28.8911C183.119 28.8911 181.466 28.251 180.139 26.9707C178.813 25.6736 178.15 24.0648 178.15 22.1444C178.15 20.224 178.805 18.6237 180.114 17.3434C181.44 16.0463 183.094 15.3978 185.075 15.3978C187.056 15.3978 188.701 16.0463 190.011 17.3434C191.337 18.6237 192 20.2493 192 22.2202ZM185.075 18.7837C184.135 18.7837 183.312 18.9859 182.607 19.3902C181.902 19.7945 181.415 20.342 181.147 21.0326H189.054C188.802 20.342 188.315 19.7945 187.593 19.3902C186.871 18.9859 186.032 18.7837 185.075 18.7837Z" fill="white"/>
</svg>
