<svg width="12" height="12" viewBox="0 0 12 12" fill="none" xmlns="http://www.w3.org/2000/svg">
<path d="M8.54366 7.30859C8.59033 6.92359 8.62533 6.53859 8.62533 6.14193C8.62533 5.74526 8.59033 5.36026 8.54366 4.97526H10.5153C10.6087 5.34859 10.667 5.73943 10.667 6.14193C10.667 6.54443 10.6087 6.93526 10.5153 7.30859M7.51116 10.5519C7.86116 9.90443 8.12949 9.20443 8.31616 8.47526H10.037C9.47184 9.44842 8.57523 10.1856 7.51116 10.5519ZM7.36533 7.30859H4.63533C4.57699 6.92359 4.54199 6.53859 4.54199 6.14193C4.54199 5.74526 4.57699 5.35443 4.63533 4.97526H7.36533C7.41783 5.35443 7.45866 5.74526 7.45866 6.14193C7.45866 6.53859 7.41783 6.92359 7.36533 7.30859ZM6.00033 10.7853C5.51616 10.0853 5.12533 9.30943 4.88616 8.47526H7.11449C6.87533 9.30943 6.48449 10.0853 6.00033 10.7853ZM3.66699 3.80859H1.96366C2.52299 2.8328 3.41896 2.09446 4.48366 1.73193C4.13366 2.37943 3.87116 3.07943 3.66699 3.80859ZM1.96366 8.47526H3.66699C3.87116 9.20443 4.13366 9.90443 4.48366 10.5519C3.42119 10.1854 2.52649 9.4481 1.96366 8.47526ZM1.48533 7.30859C1.39199 6.93526 1.33366 6.54443 1.33366 6.14193C1.33366 5.73943 1.39199 5.34859 1.48533 4.97526H3.45699C3.41033 5.36026 3.37533 5.74526 3.37533 6.14193C3.37533 6.53859 3.41033 6.92359 3.45699 7.30859M6.00033 1.49276C6.48449 2.19276 6.87533 2.97443 7.11449 3.80859H4.88616C5.12533 2.97443 5.51616 2.19276 6.00033 1.49276ZM10.037 3.80859H8.31616C8.13359 3.08611 7.86324 2.3887 7.51116 1.73193C8.58449 2.09943 9.47699 2.84026 10.037 3.80859ZM6.00033 0.308594C2.77449 0.308594 0.166992 2.93359 0.166992 6.14193C0.166992 7.68902 0.781574 9.17276 1.87554 10.2667C2.41721 10.8084 3.06027 11.2381 3.76801 11.5312C4.47574 11.8244 5.23428 11.9753 6.00033 11.9753C7.54742 11.9753 9.03115 11.3607 10.1251 10.2667C11.2191 9.17276 11.8337 7.68902 11.8337 6.14193C11.8337 5.37588 11.6828 4.61734 11.3896 3.90961C11.0965 3.20187 10.6668 2.55881 10.1251 2.01714C9.58344 1.47546 8.94038 1.04578 8.23265 0.75263C7.52491 0.459477 6.76637 0.308594 6.00033 0.308594Z" fill="white"/>
</svg>
