<svg width="13" height="10" viewBox="0 0 13 10" fill="none" xmlns="http://www.w3.org/2000/svg">
<path d="M1.70858 0.943359H10.9836C11.8586 0.943359 12.2996 1.35636 12.2996 2.19636V8.09036C12.2996 8.92336 11.8586 9.34336 10.9836 9.34336H1.70858C0.833578 9.34336 0.392578 8.92336 0.392578 8.09036V2.19636C0.392578 1.35636 0.833578 0.943359 1.70858 0.943359ZM6.34258 6.96336L11.0606 3.09236C11.2286 2.95236 11.3616 2.63036 11.1516 2.34336C10.9486 2.05636 10.5776 2.04936 10.3326 2.22436L6.34258 4.92636L2.35958 2.22436C2.11458 2.04936 1.74358 2.05636 1.54058 2.34336C1.33058 2.63036 1.46358 2.95236 1.63158 3.09236L6.34258 6.96336Z" fill="white"/>
</svg>
