<svg width="10" height="12" viewBox="0 0 10 12" fill="none" xmlns="http://www.w3.org/2000/svg">
<path d="M5.00033 11.3927C4.26354 10.7642 3.58061 10.0752 2.95866 9.33292C2.02533 8.21817 0.916993 6.55801 0.916993 4.97601C0.916588 4.16807 1.15587 3.37817 1.60456 2.70627C2.05326 2.03438 2.69118 1.51069 3.43762 1.20149C4.18405 0.892286 5.00543 0.811467 5.79781 0.969259C6.59019 1.12705 7.31795 1.51636 7.88899 2.08792C8.26918 2.46642 8.57053 2.91657 8.77559 3.41231C8.98066 3.90805 9.08537 4.43953 9.08366 4.97601C9.08366 6.55801 7.97533 8.21817 7.04199 9.33292C6.42005 10.0752 5.73711 10.7642 5.00033 11.3927ZM5.00033 3.22601C4.5362 3.22601 4.09108 3.41038 3.76289 3.73857C3.4347 4.06676 3.25033 4.51188 3.25033 4.97601C3.25033 5.44014 3.4347 5.88525 3.76289 6.21344C4.09108 6.54163 4.5362 6.72601 5.00033 6.72601C5.46446 6.72601 5.90957 6.54163 6.23776 6.21344C6.56595 5.88525 6.75033 5.44014 6.75033 4.97601C6.75033 4.51188 6.56595 4.06676 6.23776 3.73857C5.90957 3.41038 5.46446 3.22601 5.00033 3.22601Z" fill="white"/>
</svg>
