<svg width="11" height="12" viewBox="0 0 11 12" fill="none" xmlns="http://www.w3.org/2000/svg">
<path d="M3.7896 0.337634L4.39451 0.453134C4.96151 0.561051 5.34243 1.09072 5.2841 1.69097L5.1686 2.88505C5.11843 3.40597 4.7486 3.8493 4.2551 3.98172L2.88018 4.3498C2.65676 4.89522 2.5541 5.49663 2.57335 6.15347C2.58705 6.78588 2.72748 7.40913 2.98635 7.9863L4.27318 8.21497C4.76085 8.3013 5.12485 8.7038 5.17618 9.21363L5.29576 10.4007C5.35526 10.9934 4.97843 11.5616 4.41376 11.7301L3.80826 11.911C3.20626 12.09 2.57218 11.9296 2.1446 11.4898C1.13485 10.4503 0.627929 8.71722 0.625013 6.29055C0.622096 3.86097 1.12551 2.07363 2.13585 0.929717C2.56051 0.449051 3.18993 0.223884 3.7896 0.337634ZM7.73935 3.31088L7.78835 3.35288L10.1199 5.68505C10.194 5.75913 10.2391 5.85733 10.2469 5.96181C10.2547 6.06629 10.2248 6.17011 10.1625 6.25438L10.1199 6.30338L7.78893 8.63905C7.71096 8.71753 7.60616 8.76356 7.49562 8.76788C7.38508 8.77219 7.27701 8.73447 7.19316 8.66231C7.10931 8.59014 7.05592 8.48889 7.04372 8.37894C7.03153 8.26899 7.06144 8.1585 7.12743 8.06972L7.16943 8.02072L8.75143 6.4358H5.00001C4.89419 6.43594 4.7919 6.39771 4.71211 6.32821C4.63231 6.25871 4.5804 6.16264 4.56601 6.0578L4.56251 5.99888C4.56238 5.89306 4.6006 5.79078 4.6701 5.71098C4.7396 5.63118 4.83567 5.57928 4.94051 5.56488L5.00001 5.56138L8.75668 5.5608L7.17001 3.9718C7.09577 3.89769 7.05062 3.79937 7.0428 3.69476C7.03499 3.59014 7.06502 3.48621 7.12743 3.40188L7.17001 3.35288C7.23561 3.28733 7.32035 3.24432 7.41199 3.23006C7.50363 3.2158 7.59743 3.23103 7.67985 3.27355L7.73935 3.31088Z" fill="white"/>
</svg>
