<svg width="32" height="32" viewBox="0 0 32 32" fill="none" xmlns="http://www.w3.org/2000/svg">
<path d="M18.5644 15.4073L14.9708 13.7305C14.6572 13.5849 14.3996 13.7481 14.3996 14.0953V17.2537C14.3996 17.6009 14.6572 17.7641 14.9708 17.6185L18.5628 15.9417C18.878 15.7945 18.878 15.5545 18.5644 15.4073ZM15.9996 0.314453C7.51645 0.314453 0.639648 7.19125 0.639648 15.6745C0.639648 24.1577 7.51645 31.0345 15.9996 31.0345C24.4828 31.0345 31.3596 24.1577 31.3596 15.6745C31.3596 7.19125 24.4828 0.314453 15.9996 0.314453ZM15.9996 21.9145C8.13725 21.9145 7.99965 21.2057 7.99965 15.6745C7.99965 10.1433 8.13725 9.43445 15.9996 9.43445C23.862 9.43445 23.9996 10.1433 23.9996 15.6745C23.9996 21.2057 23.862 21.9145 15.9996 21.9145Z" fill="#8BC34A"/>
</svg>
